<svg xmlns="http://www.w3.org/2000/svg"
  xmlns:xlink="http://www.w3.org/1999/xlink" viewBox="0 0 536 116">
  <defs>
    <style>
      .cls-1 {
        clip-path: url(#clip-SWE_TM-logo-on-dark);
      }

      .cls-2 {
        fill: #2e3399;
      }

      .cls-3 {
        fill: #00b6b0;
      }

      .cls-4 {
        fill: #2e3399;
      }
    </style>
    <clipPath id="clip-SWE_TM-logo-on-dark">
      <rect width="100" height="100"/>
    </clipPath>
  </defs>
  <g id="SWE_TM-logo-on-dark" class="cls-1">
    <g id="SWE_In-Product">
      <path id="Path_3004" data-name="Path 3004" class="cls-3" d="M50.027,97.669A47.642,47.642,0,1,1,97.67,50.027,47.642,47.642,0,0,1,50.027,97.669Z"/>
      <path id="Path_3005" data-name="Path 3005" class="cls-3" d="M50.027,4.769A45.258,45.258,0,1,1,4.769,50.027,45.258,45.258,0,0,1,50.027,4.769m0-4.769a50.027,50.027,0,1,0,50.027,50.027A50.027,50.027,0,0,0,50.027,0Z"/>
      <path id="Path_3006" data-name="Path 3006" class="cls-4" d="M31.5,33.854c-.154,1.712.058,3.482-.057,5.213a42.665,42.665,0,0,1-.693,5.156,9.532,9.532,0,0,1-4.1,5.829c4.078,2.654,4.539,6.771,4.809,10.946.135,2.25.077,4.52.308,6.752.173,1.731.846,2.174,2.636,2.231.731.02,1.48,0,2.327,0V75.33c-5.29.9-9.657-.6-10.734-5.079a30.76,30.76,0,0,1-.654-5c-.116-1.789.076-3.578-.058-5.367-.385-4.906-1.02-6.56-5.713-6.791v-6.1a9.189,9.189,0,0,1,1.019-.173c2.577-.135,3.674-.924,4.232-3.463a29.573,29.573,0,0,0,.481-4.329,81.809,81.809,0,0,1,.6-8.406c.674-3.982,3.136-5.906,7.234-6.137,1.154-.057,2.327,0,3.655,0v5.464c-.558.038-1.039.115-1.539.115C31.925,29.949,31.751,31.084,31.5,33.854Zm6.407,12.658H37.83a3.515,3.515,0,1,0-.347,7.021h.231a3.461,3.461,0,0,0,3.655-3.251V50.09a3.523,3.523,0,0,0-3.461-3.578Zm12.061,0a3.373,3.373,0,0,0-3.482,3.251,1.79,1.79,0,0,0,.02.327,3.3,3.3,0,0,0,3.578,3.443,3.264,3.264,0,0,0,3.444-3.558,3.309,3.309,0,0,0-3.559-3.463Zm12.351,0a3.592,3.592,0,0,0-3.655,3.482A3.529,3.529,0,0,0,62.2,53.533h.039c1.769.309,3.559-1.4,3.674-3.462a3.571,3.571,0,0,0-3.593-3.559Zm16.948.288c-2.232-.1-3.348-.846-3.9-2.962a21.523,21.523,0,0,1-.635-4.136c-.154-2.578-.135-5.175-.308-7.753-.4-6.117-4.828-8.252-11.254-7.195v5.31c1.019,0,1.808,0,2.6.019,1.366.019,2.4.539,2.539,2.059.136,1.385.136,2.789.27,4.193.269,2.79.423,5.618.9,8.369A8.715,8.715,0,0,0,73.4,50.052c-3.4,2.289-4.4,5.559-4.578,9.234-.1,2.52-.154,5.059-.289,7.6-.115,2.308-.923,3.058-3.251,3.116-.653.019-1.288.077-2.019.115v5.445c1.366,0,2.616.077,3.866,0,3.886-.231,6.233-2.117,7-5.887A48.9,48.9,0,0,0,74.7,63.4c.135-1.923.116-3.866.309-5.771.288-2.982,1.654-4.213,4.635-4.4a4.037,4.037,0,0,0,.828-.192v-6.1c-.5-.058-.844-.115-1.209-.135Z"/>
    </g>
  </g>
</svg>
